<?xml version="1.0" encoding="utf-8"?>
<svg xmlns="http://www.w3.org/2000/svg" width="472.403" height="375.526" viewBox="0 0 472.403 375.526"><g transform="translate(-923 -113.599)"><g transform="translate(941.735 113.599)"><path d="M195.757,30.258c56.594,47.6,139.558-12.931,169.489,62.678S295.1,245.034,382.324,241.3c87.209-3.736,88.187,108.982,18.917,112.836S327.608,293.725,251.3,298.283c-76.333,4.558-104.15,115.888-215.226,57.514-73.907-38.851-7.708-146.17,44.622-135.333s64.38-9.37-7.16-67.706C-34.982,64.258,100.136-50.163,195.757,30.258Z" transform="translate(2.968 2.841)" fill="#b3ecfb"/><g transform="translate(299.08 29.031)"><circle cx="24.14" cy="24.14" r="24.14" fill="#00bef0"/><g transform="translate(12.42 16.802)"><path d="M168.26,40.744l-8.784-8.451a.75.75,0,0,1-.02-1.076l2.367-2.465a.75.75,0,0,1,1.076-.02l5.223,5.028a.768.768,0,0,0,1.076-.02l9.723-10.075a.75.75,0,0,1,1.076-.02l2.484,2.367a.75.75,0,0,1,.02,1.076L169.355,40.724A.812.812,0,0,1,168.26,40.744Z" transform="translate(-159.239 -23.429)" fill="#fff"/></g></g><path d="M73.61,11.4A11.4,11.4,0,1,1,62.2,0,11.4,11.4,0,0,1,73.61,11.4Z" transform="translate(48.568)" fill="#dcf5ff"/><path d="M15.112,107.411A7.551,7.551,0,1,1,7.561,99.86,7.556,7.556,0,0,1,15.112,107.411Z" transform="translate(0 95.49)" fill="#dcf5ff"/><g transform="translate(52.661 48.026)"><g transform="translate(65.976 24.316)"><g transform="translate(3.502)"><path d="M185.429,254.4,62.44,186.4,141.59,43.26,175.8,36.98,275.24,91.95Z" transform="translate(-62.44 -36.98)" fill="#f4f4f4"/><g transform="translate(24.736 10.827)"><g transform="translate(77.487 90.359)"><g transform="translate(9.546)"><path d="M161.86,115.262,120.6,92.452a2.014,2.014,0,0,1-.782-2.719h0a2.014,2.014,0,0,1,2.719-.783L163.8,111.76a2.014,2.014,0,0,1,.782,2.719h0A2.009,2.009,0,0,1,161.86,115.262Z" transform="translate(-119.574 -88.704)" fill="#d3d3d3"/></g><g transform="translate(4.773 8.647)"><path d="M159.42,119.682l-41.257-22.81a2.014,2.014,0,0,1-.783-2.719h0a2.014,2.014,0,0,1,2.719-.783l41.257,22.81a2.014,2.014,0,0,1,.782,2.719h0A2.014,2.014,0,0,1,159.42,119.682Z" transform="translate(-117.134 -93.124)" fill="#d3d3d3"/></g><g transform="translate(0 17.274)"><path d="M156.98,124.092l-41.257-22.81a2.014,2.014,0,0,1-.782-2.719h0a2.014,2.014,0,0,1,2.719-.782l41.257,22.81a2.014,2.014,0,0,1,.782,2.719h0A1.981,1.981,0,0,1,156.98,124.092Z" transform="translate(-114.694 -97.534)" fill="#d3d3d3"/></g></g><g transform="translate(24.101 60.839)"><g transform="translate(9.566)"><path d="M134.58,100.172,93.323,77.362a2.014,2.014,0,0,1-.782-2.719h0a2.014,2.014,0,0,1,2.719-.782l41.257,22.81a2.014,2.014,0,0,1,.783,2.719h0A1.985,1.985,0,0,1,134.58,100.172Z" transform="translate(-92.294 -73.614)" fill="#d3d3d3"/></g><g transform="translate(4.793 8.647)"><path d="M132.14,104.592,90.883,81.782a2.014,2.014,0,0,1-.782-2.719h0a2.014,2.014,0,0,1,2.719-.782l41.257,22.81a2.014,2.014,0,0,1,.783,2.719h0A2.019,2.019,0,0,1,132.14,104.592Z" transform="translate(-89.854 -78.034)" fill="#d3d3d3"/></g><g transform="translate(0 17.293)"><path d="M129.69,109.012,88.433,86.2a2.014,2.014,0,0,1-.783-2.719h0a2.014,2.014,0,0,1,2.719-.782l41.257,22.81a2.014,2.014,0,0,1,.782,2.719h0A2.009,2.009,0,0,1,129.69,109.012Z" transform="translate(-87.404 -82.454)" fill="#d3d3d3"/></g></g><g transform="translate(52.838)"><g transform="translate(14.476)"><path d="M205.146,98.591,110.523,46.262a2.014,2.014,0,0,1-.783-2.719h0a2.014,2.014,0,0,1,2.719-.782l94.623,52.33a2.014,2.014,0,0,1,.783,2.719h0A2.014,2.014,0,0,1,205.146,98.591Z" transform="translate(-109.494 -42.514)" fill="#d3d3d3"/></g><g transform="translate(9.566 8.862)"><path d="M202.636,103.121l-94.623-52.33a2.014,2.014,0,0,1-.783-2.719h0a2.014,2.014,0,0,1,2.719-.783l94.624,52.33a2.014,2.014,0,0,1,.782,2.719h0A1.981,1.981,0,0,1,202.636,103.121Z" transform="translate(-106.984 -47.044)" fill="#d3d3d3"/></g><g transform="translate(4.793 17.508)"><path d="M200.2,107.541l-94.623-52.33a2.014,2.014,0,0,1-.783-2.719h0a2.014,2.014,0,0,1,2.719-.783l94.623,52.33a2.014,2.014,0,0,1,.783,2.719h0A2.014,2.014,0,0,1,200.2,107.541Z" transform="translate(-104.544 -51.464)" fill="#d3d3d3"/></g><g transform="translate(0 26.155)"><path d="M197.766,111.961l-94.643-52.33a2.014,2.014,0,0,1-.782-2.719h0a2.014,2.014,0,0,1,2.719-.783l94.623,52.329a2.014,2.014,0,0,1,.782,2.719h0A1.992,1.992,0,0,1,197.766,111.961Z" transform="translate(-102.094 -55.884)" fill="#d3d3d3"/></g></g><g transform="translate(38.401 34.743)"><g transform="translate(9.703)"><path d="M195.326,116.351,100.7,64.022A2.014,2.014,0,0,1,99.92,61.3h0a2.014,2.014,0,0,1,2.719-.783l94.623,52.329a2.014,2.014,0,0,1,.783,2.719h0A2.014,2.014,0,0,1,195.326,116.351Z" transform="translate(-99.674 -60.274)" fill="#d3d3d3"/></g><g transform="translate(4.793 8.881)"><path d="M192.816,120.872,98.193,68.562a2.014,2.014,0,0,1-.783-2.719h0a2.014,2.014,0,0,1,2.719-.782l94.623,52.329a2.014,2.014,0,0,1,.782,2.719h0A1.991,1.991,0,0,1,192.816,120.872Z" transform="translate(-97.164 -64.814)" fill="#d3d3d3"/></g><g transform="translate(0 17.528)"><path d="M190.386,125.292,95.743,72.982a2.014,2.014,0,0,1-.783-2.719h0a2.014,2.014,0,0,1,2.719-.783L192.3,121.81a2.014,2.014,0,0,1,.782,2.719h0A2,2,0,0,1,190.386,125.292Z" transform="translate(-94.714 -69.234)" fill="#d3d3d3"/></g></g><g transform="translate(14.418 87.014)"><g transform="translate(4.793)"><path d="M180.556,143.052,85.933,90.742a2.014,2.014,0,0,1-.782-2.719h0a2.014,2.014,0,0,1,2.719-.783l94.623,52.33a2.014,2.014,0,0,1,.782,2.719h0A2.008,2.008,0,0,1,180.556,143.052Z" transform="translate(-84.904 -86.994)" fill="#d3d3d3"/></g><g transform="translate(0 8.627)"><path d="M178.126,147.481,83.483,95.152a2.014,2.014,0,0,1-.782-2.719h0a2.014,2.014,0,0,1,2.719-.783l94.623,52.329a2.014,2.014,0,0,1,.782,2.719h0A1.992,1.992,0,0,1,178.126,147.481Z" transform="translate(-82.454 -91.404)" fill="#d3d3d3"/></g></g><g transform="translate(0 104.229)"><g transform="translate(9.683)"><path d="M175.686,151.871,81.063,99.542a2.014,2.014,0,0,1-.783-2.719h0A2.014,2.014,0,0,1,83,96.04l94.623,52.329a2.014,2.014,0,0,1,.783,2.719h0A2.014,2.014,0,0,1,175.686,151.871Z" transform="translate(-80.034 -95.794)" fill="#d3d3d3"/></g><g transform="translate(4.773 8.862)"><path d="M173.176,156.4,78.553,104.072a2.014,2.014,0,0,1-.783-2.719h0a2.014,2.014,0,0,1,2.719-.782L175.113,152.9a2.014,2.014,0,0,1,.782,2.719h0A1.976,1.976,0,0,1,173.176,156.4Z" transform="translate(-77.524 -100.324)" fill="#d3d3d3"/></g><g transform="translate(0 17.508)"><path d="M170.736,160.821l-94.623-52.33a2.014,2.014,0,0,1-.782-2.719h0a2.014,2.014,0,0,1,2.719-.782l94.623,52.329a2.014,2.014,0,0,1,.783,2.719h0A2,2,0,0,1,170.736,160.821Z" transform="translate(-75.084 -104.744)" fill="#d3d3d3"/></g><g transform="translate(39.986 50.921)"><path d="M146.417,153.135,96.553,125.572a2.014,2.014,0,0,1-.783-2.719h0a2.014,2.014,0,0,1,2.719-.783l49.865,27.563a2.014,2.014,0,0,1,.782,2.719h0A2.019,2.019,0,0,1,146.417,153.135Z" transform="translate(-95.524 -121.824)" fill="#d3d3d3"/></g></g></g></g><g transform="translate(0 0.43)"><path d="M193.538,239.4,60.65,193.66,110.632,48.507,176.42,37.2l77.545,26.7Z" transform="translate(-60.65 -37.2)" fill="#fff"/><path d="M171.1,60.636,148.96,104.319,165.138,57.35Z" transform="translate(23.796 -17.932)" opacity="0.14"/><g transform="translate(21.776 3.681)"><g transform="translate(73.887 85.605)"><g transform="translate(6.436)"><path d="M158.751,102.068,114.188,86.731a1.993,1.993,0,0,1-1.232-2.543h0a1.993,1.993,0,0,1,2.543-1.232l44.563,15.337a1.993,1.993,0,0,1,1.232,2.543h0A2,2,0,0,1,158.751,102.068Z" transform="translate(-112.842 -82.842)" fill="#e5e5e5"/></g><g transform="translate(3.228 9.331)"><path d="M157.111,106.838,112.548,91.5a1.993,1.993,0,0,1-1.232-2.543h0a1.993,1.993,0,0,1,2.543-1.232l44.563,15.337a1.993,1.993,0,0,1,1.232,2.543h0A2.01,2.01,0,0,1,157.111,106.838Z" transform="translate(-111.202 -87.612)" fill="#e5e5e5"/></g><g transform="translate(0 18.663)"><path d="M155.462,111.608,110.9,96.271a1.993,1.993,0,0,1-1.232-2.543h0a1.993,1.993,0,0,1,2.543-1.232l44.563,15.337A1.993,1.993,0,0,1,158,110.376h0A2,2,0,0,1,155.462,111.608Z" transform="translate(-109.552 -92.382)" fill="#e5e5e5"/></g></g><g transform="translate(16.237 65.749)"><g transform="translate(6.416)"><path d="M129.272,91.918,84.708,76.581a1.993,1.993,0,0,1-1.232-2.543h0a1.993,1.993,0,0,1,2.543-1.232l44.563,15.337a1.993,1.993,0,0,1,1.232,2.543h0A2,2,0,0,1,129.272,91.918Z" transform="translate(-83.362 -72.692)" fill="#e5e5e5"/></g><g transform="translate(3.189 9.312)"><path d="M127.641,96.7,83.058,81.341A1.993,1.993,0,0,1,81.826,78.8h0a1.993,1.993,0,0,1,2.543-1.232L128.932,92.9a1.993,1.993,0,0,1,1.232,2.543h0A1.975,1.975,0,0,1,127.641,96.7Z" transform="translate(-81.712 -77.452)" fill="#e5e5e5"/></g><g transform="translate(0 18.663)"><path d="M125.992,101.458,81.428,86.121A1.993,1.993,0,0,1,80.2,83.578h0a1.993,1.993,0,0,1,2.543-1.232L127.3,97.683a1.993,1.993,0,0,1,1.232,2.543h0A2,2,0,0,1,125.992,101.458Z" transform="translate(-80.082 -82.232)" fill="#e5e5e5"/></g></g><g transform="translate(35.545)"><g transform="translate(9.742)"><path d="M198.512,78.164,96.278,42.971a1.993,1.993,0,0,1-1.232-2.543h0A1.993,1.993,0,0,1,97.589,39.2L199.822,74.389a1.994,1.994,0,0,1,1.232,2.543h0A1.994,1.994,0,0,1,198.512,78.164Z" transform="translate(-94.932 -39.082)" fill="#e5e5e5"/></g><g transform="translate(6.436 9.586)"><path d="M196.822,83.084,94.588,47.871a1.993,1.993,0,0,1-1.232-2.543h0A1.994,1.994,0,0,1,95.9,44.1L198.132,79.289a1.994,1.994,0,0,1,1.232,2.543h0A2,2,0,0,1,196.822,83.084Z" transform="translate(-93.242 -43.982)" fill="#e5e5e5"/></g><g transform="translate(3.228 18.917)"><path d="M195.182,87.854,92.948,52.641A1.993,1.993,0,0,1,91.716,50.1h0a1.993,1.993,0,0,1,2.543-1.232L196.492,84.059a1.994,1.994,0,0,1,1.232,2.543h0A2,2,0,0,1,195.182,87.854Z" transform="translate(-91.602 -48.752)" fill="#e5e5e5"/></g><g transform="translate(0 28.268)"><path d="M193.551,92.614,91.3,57.421a1.993,1.993,0,0,1-1.232-2.543h0a1.993,1.993,0,0,1,2.543-1.232L194.842,88.839a1.994,1.994,0,0,1,1.232,2.543h0A1.988,1.988,0,0,1,193.551,92.614Z" transform="translate(-89.952 -53.532)" fill="#e5e5e5"/></g></g><g transform="translate(25.842 37.54)"><g transform="translate(6.514)"><path d="M191.9,97.354,89.668,62.161a1.993,1.993,0,0,1-1.232-2.543h0a1.993,1.993,0,0,1,2.543-1.232L193.212,93.579a1.993,1.993,0,0,1,1.232,2.543h0A2,2,0,0,1,191.9,97.354Z" transform="translate(-88.322 -58.272)" fill="#e5e5e5"/></g><g transform="translate(3.208 9.586)"><path d="M190.231,102.254,87.978,67.061a1.993,1.993,0,0,1-1.232-2.543h0a1.993,1.993,0,0,1,2.543-1.232L191.522,98.479a1.993,1.993,0,0,1,1.232,2.543h0A1.972,1.972,0,0,1,190.231,102.254Z" transform="translate(-86.632 -63.172)" fill="#e5e5e5"/></g><g transform="translate(0 18.917)"><path d="M188.572,107.044,86.338,71.831a1.993,1.993,0,0,1-1.232-2.543h0a1.993,1.993,0,0,1,2.543-1.232l102.233,35.193a1.993,1.993,0,0,1,1.232,2.543h0A2,2,0,0,1,188.572,107.044Z" transform="translate(-84.992 -67.942)" fill="#e5e5e5"/></g></g><g transform="translate(9.703 93.997)"><g transform="translate(3.208)"><path d="M181.981,126.214,79.728,91.021A1.993,1.993,0,0,1,78.5,88.478h0a1.994,1.994,0,0,1,2.543-1.232l102.233,35.193a1.993,1.993,0,0,1,1.232,2.543h0A1.972,1.972,0,0,1,181.981,126.214Z" transform="translate(-78.382 -87.132)" fill="#e5e5e5"/></g><g transform="translate(0 9.331)"><path d="M180.322,131,78.088,95.791a1.993,1.993,0,0,1-1.232-2.543h0A1.993,1.993,0,0,1,79.4,92.016l102.233,35.193a1.993,1.993,0,0,1,1.232,2.543h0A2,2,0,0,1,180.322,131Z" transform="translate(-76.742 -91.902)" fill="#e5e5e5"/></g></g><g transform="translate(0 112.601)"><g transform="translate(6.514)"><path d="M178.692,135.744,76.458,100.531a1.993,1.993,0,0,1-1.232-2.543h0a1.993,1.993,0,0,1,2.543-1.232L180,131.949a1.993,1.993,0,0,1,1.232,2.543h0A2,2,0,0,1,178.692,135.744Z" transform="translate(-75.112 -96.642)" fill="#e5e5e5"/></g><g transform="translate(3.208 9.605)"><path d="M177,140.634,74.768,105.441a1.993,1.993,0,0,1-1.232-2.543h0a1.993,1.993,0,0,1,2.543-1.232l102.233,35.193a1.993,1.993,0,0,1,1.232,2.543h0A2,2,0,0,1,177,140.634Z" transform="translate(-73.422 -101.552)" fill="#e5e5e5"/></g><g transform="translate(0 18.936)"><path d="M175.362,145.4,73.128,110.211a1.994,1.994,0,0,1-1.232-2.543h0a1.993,1.993,0,0,1,2.543-1.232l102.233,35.193a1.993,1.993,0,0,1,1.232,2.543h0A1.994,1.994,0,0,1,175.362,145.4Z" transform="translate(-71.782 -106.322)" fill="#e5e5e5"/></g><g transform="translate(45.15 44.915)"><path d="M150.083,142.037,96.208,123.491a1.993,1.993,0,0,1-1.232-2.543h0a1.993,1.993,0,0,1,2.543-1.232l53.875,18.545a1.993,1.993,0,0,1,1.232,2.543h0A2,2,0,0,1,150.083,142.037Z" transform="translate(-94.862 -119.602)" fill="#e5e5e5"/></g></g></g></g><g transform="translate(196.505 54.051)"><path d="M163.291,97.377,180.9,65.529l-1.682-.919L161.1,97.377Z" transform="translate(-161.1 -64.61)" fill="#fff"/></g></g><g transform="translate(27.516)"><g transform="translate(0 24.218)"><path d="M224.779,269.469a4.984,4.984,0,0,1-4.988,4.988H45.978a4.984,4.984,0,0,1-4.988-4.988V41.918a4.984,4.984,0,0,1,4.988-4.988H219.791a4.984,4.984,0,0,1,4.988,4.988Z" transform="translate(-40.99 -36.93)" fill="#004658"/></g><g transform="translate(7.219 30.596)"><rect width="170.174" height="224.772" fill="#fff"/></g><g transform="translate(39.184)"><path d="M160.788,38.831H132.814a5.652,5.652,0,0,1-5.38-4.049,14.332,14.332,0,0,0-27.466,0,5.616,5.616,0,0,1-5.38,4.049H66.634a5.615,5.615,0,0,0-5.614,5.614V59.019l99.749.02,5.614-.078v-14.5A5.577,5.577,0,0,0,160.788,38.831Zm-47.067,5.184a5.595,5.595,0,1,1,5.595-5.595A5.594,5.594,0,0,1,113.721,44.015Z" transform="translate(-61.02 -24.55)" fill="#fabc3c"/><rect width="105.363" height="5.477" transform="translate(0.02 30.596)" fill="#f4b425" opacity="0.7"/></g><g transform="translate(22.927 55.772)"><g transform="translate(0 27.329)"><path d="M189,72H55.194a2.488,2.488,0,0,1-2.484-2.484h0a2.488,2.488,0,0,1,2.484-2.484H189a2.488,2.488,0,0,1,2.484,2.484h0A2.488,2.488,0,0,1,189,72Z" transform="translate(-52.71 -67.03)" fill="#e5e5e5"/></g><g transform="translate(0 51.762)"><path d="M189,84.489H55.194A2.488,2.488,0,0,1,52.71,82h0a2.488,2.488,0,0,1,2.484-2.484H189A2.488,2.488,0,0,1,191.486,82h0A2.488,2.488,0,0,1,189,84.489Z" transform="translate(-52.71 -79.52)" fill="#e5e5e5"/></g><g transform="translate(0 64.4)"><path d="M189,90.949H55.194a2.488,2.488,0,0,1-2.484-2.484h0a2.488,2.488,0,0,1,2.484-2.484H189a2.488,2.488,0,0,1,2.484,2.484h0A2.488,2.488,0,0,1,189,90.949Z" transform="translate(-52.71 -85.98)" fill="#e5e5e5"/></g><g transform="translate(0 77.017)"><path d="M189,97.4H55.194a2.488,2.488,0,0,1-2.484-2.484h0a2.488,2.488,0,0,1,2.484-2.484H189a2.488,2.488,0,0,1,2.484,2.484h0A2.475,2.475,0,0,1,189,97.4Z" transform="translate(-52.71 -92.43)" fill="#e5e5e5"/></g><g transform="translate(0 89.655)"><path d="M189,103.859H55.194a2.488,2.488,0,0,1-2.484-2.484h0a2.488,2.488,0,0,1,2.484-2.484H189a2.488,2.488,0,0,1,2.484,2.484h0A2.488,2.488,0,0,1,189,103.859Z" transform="translate(-52.71 -98.89)" fill="#e5e5e5"/></g><g transform="translate(0 102.292)"><path d="M189,110.319H55.194a2.488,2.488,0,0,1-2.484-2.484h0a2.488,2.488,0,0,1,2.484-2.484H189a2.488,2.488,0,0,1,2.484,2.484h0A2.488,2.488,0,0,1,189,110.319Z" transform="translate(-52.71 -105.35)" fill="#e5e5e5"/></g><g transform="translate(0 114.91)"><path d="M189,116.769H55.194a2.488,2.488,0,0,1-2.484-2.484h0a2.488,2.488,0,0,1,2.484-2.484H189a2.488,2.488,0,0,1,2.484,2.484h0A2.488,2.488,0,0,1,189,116.769Z" transform="translate(-52.71 -111.8)" fill="#e5e5e5"/></g><g transform="translate(0 127.547)"><path d="M189,123.229H55.194a2.488,2.488,0,0,1-2.484-2.484h0a2.488,2.488,0,0,1,2.484-2.484H189a2.488,2.488,0,0,1,2.484,2.484h0A2.488,2.488,0,0,1,189,123.229Z" transform="translate(-52.71 -118.26)" fill="#e5e5e5"/></g><g transform="translate(0 140.165)"><path d="M189,129.679H55.194a2.488,2.488,0,0,1-2.484-2.484h0a2.488,2.488,0,0,1,2.484-2.484H189a2.488,2.488,0,0,1,2.484,2.484h0A2.475,2.475,0,0,1,189,129.679Z" transform="translate(-52.71 -124.71)" fill="#e5e5e5"/></g><g transform="translate(0 152.802)"><g transform="translate(0 0)"><path d="M189,136.139H55.194a2.488,2.488,0,0,1-2.484-2.484h0a2.488,2.488,0,0,1,2.484-2.484H189a2.488,2.488,0,0,1,2.484,2.484h0A2.488,2.488,0,0,1,189,136.139Z" transform="translate(-52.71 -131.17)" fill="#e5e5e5"/></g></g><g transform="translate(0 64.4)"><path d="M189,90.949H55.194a2.488,2.488,0,0,1-2.484-2.484h0a2.488,2.488,0,0,1,2.484-2.484H189a2.488,2.488,0,0,1,2.484,2.484h0A2.488,2.488,0,0,1,189,90.949Z" transform="translate(-52.71 -85.98)" fill="#e5e5e5"/></g><g transform="translate(0)"><rect width="138.698" height="20.091" fill="#ff673c"/></g><g transform="translate(0 39.555)"><path d="M189,78.249H55.194a2.488,2.488,0,0,1-2.484-2.484h0a2.488,2.488,0,0,1,2.484-2.484H189a2.488,2.488,0,0,1,2.484,2.484h0A2.488,2.488,0,0,1,189,78.249Z" transform="translate(-52.71 -73.28)" fill="#e5e5e5"/></g><g transform="translate(62.893 165.439)"><g transform="translate(0 0)"><path d="M158.258,142.6H87.344a2.488,2.488,0,0,1-2.484-2.484h0a2.488,2.488,0,0,1,2.484-2.484h70.914a2.488,2.488,0,0,1,2.484,2.484h0A2.488,2.488,0,0,1,158.258,142.6Z" transform="translate(-84.86 -137.63)" fill="#e5e5e5"/></g></g><g transform="translate(62.893 178.057)"><path d="M158.258,149.049H87.344a2.488,2.488,0,0,1-2.484-2.484h0a2.488,2.488,0,0,1,2.484-2.484h70.914a2.488,2.488,0,0,1,2.484,2.484h0A2.475,2.475,0,0,1,158.258,149.049Z" transform="translate(-84.86 -144.08)" fill="#e5e5e5"/></g></g><path d="M-50.738,0V-7.7h3.41a2.623,2.623,0,0,1,2.029.715,2.51,2.51,0,0,1,.654,1.76,2.54,2.54,0,0,1-.154.874,2.565,2.565,0,0,1-.462.786,2.15,2.15,0,0,1-.847.583,3.207,3.207,0,0,1-1.221.22h-1.738V0Zm3.476-4.334A.81.81,0,0,0-46.6-4.6a.948.948,0,0,0,.22-.627.986.986,0,0,0-.209-.622.8.8,0,0,0-.671-.27h-1.8v1.782ZM-42.565,0V-7.7h3.751a2.575,2.575,0,0,1,2.007.693,2.584,2.584,0,0,1,.622,1.793,2.635,2.635,0,0,1-.374,1.331,2.057,2.057,0,0,1-1.023.913L-36.141,0h-1.87l-1.4-2.717h-1.485V0Zm1.672-4.3h2.1q.869,0,.869-.913a1.008,1.008,0,0,0-.2-.643.8.8,0,0,0-.666-.259h-2.1ZM-33.677,0V-7.7H-32V0Zm6.38,0-2.772-7.7h1.815l1.661,4.851a1.431,1.431,0,0,1,.066.209l.033.121q.022-.1.1-.33L-24.734-7.7h1.793L-25.7,0Zm10.67,0L-17.2-1.5h-2.893L-20.664,0H-22.49l3.036-7.7h1.606L-14.8,0ZM-17.76-3.036-18.42-4.7a5.99,5.99,0,0,1-.231-.649,5.311,5.311,0,0,1-.231.649l-.66,1.661ZM-10.1.11a3.209,3.209,0,0,1-1.524-.347,2.6,2.6,0,0,1-1.017-.929,4.415,4.415,0,0,1-.533-1.254,5.789,5.789,0,0,1-.17-1.43,5.291,5.291,0,0,1,.176-1.359,4.8,4.8,0,0,1,.539-1.265,2.723,2.723,0,0,1,1.017-.968A3.03,3.03,0,0,1-10.1-7.81a2.936,2.936,0,0,1,1.782.539A2.984,2.984,0,0,1-7.277-5.962l-1.5.671a2.891,2.891,0,0,0-.61-.693,1.162,1.162,0,0,0-.72-.22,1.22,1.22,0,0,0-.715.214,1.393,1.393,0,0,0-.473.572,3.3,3.3,0,0,0-.242.748,4.229,4.229,0,0,0-.077.819,3.967,3.967,0,0,0,.148,1.1,2.07,2.07,0,0,0,.506.886A1.147,1.147,0,0,0-10.1-1.5q.715,0,1.309-.99l1.529.572A3.018,3.018,0,0,1-10.1.11ZM-3.1,0V-2.992L-6.023-7.7h1.892l1.87,2.926L-.4-7.7H1.49L-1.436-2.992V0ZM13.359,0H11.9l-2.9-4.081a4.2,4.2,0,0,1-.33-.583,3.7,3.7,0,0,1,.033.583V0H7.045V-7.7H8.574L11.4-3.663a2.833,2.833,0,0,1,.319.572,4.246,4.246,0,0,1-.033-.583V-7.7h1.672Zm5.885.132A3.571,3.571,0,0,1,17.93-.1a2.761,2.761,0,0,1-.973-.622,3.53,3.53,0,0,1-.644-.908A4.386,4.386,0,0,1,15.939-2.7a5.633,5.633,0,0,1-.115-1.149A5.633,5.633,0,0,1,15.939-5a4.386,4.386,0,0,1,.374-1.073,3.53,3.53,0,0,1,.644-.908A2.761,2.761,0,0,1,17.93-7.6a3.571,3.571,0,0,1,1.315-.231,3.426,3.426,0,0,1,1.573.347,2.71,2.71,0,0,1,1.067.935,4.579,4.579,0,0,1,.577,1.271,5.24,5.24,0,0,1,.193,1.43,5.24,5.24,0,0,1-.193,1.43,4.579,4.579,0,0,1-.577,1.271,2.71,2.71,0,0,1-1.067.935A3.426,3.426,0,0,1,19.244.132Zm0-1.617a1.326,1.326,0,0,0,.968-.39,2.1,2.1,0,0,0,.55-.9,3.7,3.7,0,0,0,.154-1.072,4.092,4.092,0,0,0-.143-1.106,1.939,1.939,0,0,0-.539-.891,1.374,1.374,0,0,0-.99-.379,1.372,1.372,0,0,0-1,.391,1.991,1.991,0,0,0-.545.9,4.007,4.007,0,0,0-.143,1.084,3.793,3.793,0,0,0,.088.825,3.042,3.042,0,0,0,.275.754,1.468,1.468,0,0,0,.528.572A1.456,1.456,0,0,0,19.244-1.485Zm9.075-4.609V0H26.647V-6.094H24.436V-7.7H30.53v1.606ZM32.829,0V-7.7H34.5V0Zm7.436.11a3.209,3.209,0,0,1-1.524-.347,2.6,2.6,0,0,1-1.017-.929,4.415,4.415,0,0,1-.534-1.254,5.789,5.789,0,0,1-.171-1.43A5.291,5.291,0,0,1,37.2-5.208a4.8,4.8,0,0,1,.539-1.265,2.723,2.723,0,0,1,1.018-.968,3.03,3.03,0,0,1,1.513-.368,2.936,2.936,0,0,1,1.782.539,2.984,2.984,0,0,1,1.045,1.309l-1.5.671a2.891,2.891,0,0,0-.611-.693,1.162,1.162,0,0,0-.72-.22,1.22,1.22,0,0,0-.715.214,1.393,1.393,0,0,0-.473.572,3.3,3.3,0,0,0-.242.748,4.229,4.229,0,0,0-.077.819,3.967,3.967,0,0,0,.149,1.1,2.07,2.07,0,0,0,.506.886,1.147,1.147,0,0,0,.853.368q.715,0,1.309-.99l1.529.572A3.018,3.018,0,0,1,40.265.11ZM45.381,0V-7.7h5.533v1.584H47.053v1.353h2.156v1.584H47.053v1.584h4.081V0Z" transform="translate(92.088 69.375)" fill="#fffff2"/></g><g transform="translate(135.579 111.134)"><g transform="translate(0 143.373)"><path d="M97.11,158.523H339.078a.877.877,0,0,0,.88-.88V155.53a.877.877,0,0,0-.88-.88H97.11a.877.877,0,0,0-.88.88v2.113A.877.877,0,0,0,97.11,158.523Z" transform="translate(-96.23 -154.65)" fill="#fafafb"/></g><path d="M308.685,224.733H105.51V85.605a4.266,4.266,0,0,1,4.245-4.245h198.93a4.266,4.266,0,0,1,4.245,4.245V224.733Z" transform="translate(-87.356 -81.36)" fill="#414a59"/><g transform="translate(24.492 6.338)"><rect width="194.764" height="137.035" fill="#ff4848"/></g><g transform="translate(24.492 6.338)"><rect width="194.764" height="137.035" fill="#00bef0"/></g><path d="M319.829,156.63H96.68l20.384,3.091a15.076,15.076,0,0,0,3.169.274H315.055a15.075,15.075,0,0,0,3.169-.274l20.384-3.091Z" transform="translate(-95.8 -9.384)" fill="#c6c6c6"/><g transform="translate(84.999 15.102)"><g transform="translate(12.363)"><path d="M170.512,138.1a24.512,24.512,0,1,1,24.512-24.512A24.537,24.537,0,0,1,170.512,138.1Z" transform="translate(-146 -89.08)" fill="#fff"/><g transform="translate(10.614 7.316)"><path d="M179,119.405v-.02a2.063,2.063,0,0,0-.724-1,6.925,6.925,0,0,0-1.741-.763c-.293-.1-.567-.2-.8-.293a25.864,25.864,0,0,1-3.4-1.682,3.876,3.876,0,0,1-1.6-1.448c0-.02-.02-.039-.02-.059a1.279,1.279,0,0,1-.078-.352v-.137a3.376,3.376,0,0,1-.02-.9c.157-.215.313-.45.489-.724a13.971,13.971,0,0,0,1.506-2.954,3.284,3.284,0,0,0,1.506-2.406,3.337,3.337,0,0,0-.372-2.778c.059-.528.1-1.017.117-1.506.059-.411.528-4.245-1.8-6.964-1.467-1.721-3.736-2.6-6.69-2.6-2.973,0-5.223.88-6.69,2.6-2.328,2.719-1.858,6.553-1.8,6.964.02.489.059,1,.117,1.506a3.411,3.411,0,0,0-.372,2.778,3.262,3.262,0,0,0,1.526,2.406,15.261,15.261,0,0,0,1.487,2.934c.176.293.352.528.509.743a4.857,4.857,0,0,1-.02.9v.117a1.408,1.408,0,0,1-.078.372c0,.02-.02.039-.02.059a3.876,3.876,0,0,1-1.6,1.448,24.721,24.721,0,0,1-3.4,1.682c-.254.1-.528.2-.8.293a6.629,6.629,0,0,0-1.741.763,1.955,1.955,0,0,0-.743,1.017c-.313.8-.411,1.193-.157,1.506a17.752,17.752,0,0,0,6.3,4.695l.2.078c.352.156.724.293,1.1.43.078.02.156.059.235.078l.1.039c.293.1.587.2.9.274l.039.02c.059.02.137.039.2.059.626.156,1.154.274,1.682.372a18.7,18.7,0,0,0,3.11.254,21.055,21.055,0,0,0,3.11-.254,14.061,14.061,0,0,0,1.682-.372c.059-.02.137-.039.2-.059l.039-.02c.313-.078.606-.176.9-.274l.1-.039c.078-.02.157-.059.215-.078.372-.137.743-.274,1.135-.45l.176-.059a17.927,17.927,0,0,0,6.3-4.695C179.428,120.618,179.31,120.227,179,119.405Z" transform="translate(-151.426 -92.82)" fill="#00fbb9"/></g></g><g transform="translate(0 57.142)"><g transform="translate(0 39.066)"><path d="M162.744,141.7H141.4a1.721,1.721,0,1,1,0-3.443h21.343a1.721,1.721,0,1,1,0,3.443Z" transform="translate(-139.68 -138.26)" fill="#651f45"/></g><g transform="translate(0 19.249)"><path d="M211.807,142.274H141.284a1.611,1.611,0,0,1-1.6-1.6V129.734a1.611,1.611,0,0,1,1.6-1.6h70.523a1.611,1.611,0,0,1,1.6,1.6V140.67A1.6,1.6,0,0,1,211.807,142.274Z" transform="translate(-139.68 -128.13)" fill="#fff"/><g transform="translate(5.771 4.91)"><circle cx="2.152" cy="2.152" r="2.152" fill="#494949"/><g transform="translate(7.238)"><circle cx="2.152" cy="2.152" r="2.152" fill="#494949"/></g><g transform="translate(14.476)"><circle cx="2.152" cy="2.152" r="2.152" fill="#494949"/></g><g transform="translate(21.714)"><circle cx="2.152" cy="2.152" r="2.152" fill="#494949"/></g><g transform="translate(28.952)"><circle cx="2.152" cy="2.152" r="2.152" fill="#494949"/></g><g transform="translate(36.171)"><path d="M165.424,132.792a2.152,2.152,0,1,1-2.152-2.152A2.171,2.171,0,0,1,165.424,132.792Z" transform="translate(-161.12 -130.64)" fill="#494949"/></g><g transform="translate(43.409)"><circle cx="2.152" cy="2.152" r="2.152" fill="#494949"/></g><g transform="translate(50.647)"><path d="M172.824,132.792a2.152,2.152,0,1,1-2.152-2.152A2.171,2.171,0,0,1,172.824,132.792Z" transform="translate(-168.52 -130.64)" fill="#494949"/></g><g transform="translate(57.885)"><path d="M176.524,132.792a2.152,2.152,0,1,1-2.152-2.152A2.171,2.171,0,0,1,176.524,132.792Z" transform="translate(-172.22 -130.64)" fill="#494949"/></g></g></g><path d="M211.807,132.434H141.284a1.611,1.611,0,0,1-1.6-1.6V119.894a1.611,1.611,0,0,1,1.6-1.6h70.523a1.611,1.611,0,0,1,1.6,1.6V130.83A1.587,1.587,0,0,1,211.807,132.434Z" transform="translate(-139.68 -118.29)" fill="#fff"/><g transform="translate(6.201 5.556)"><path d="M202.457,124.573H144.572a1.721,1.721,0,1,1,0-3.443h57.885a1.721,1.721,0,1,1,0,3.443Z" transform="translate(-142.85 -121.13)" fill="#1c0a14"/></g><g transform="translate(39.457 39.066)"><path d="M192.4,141.7h-30.83a1.721,1.721,0,0,1,0-3.443H192.4a1.721,1.721,0,1,1,0,3.443Z" transform="translate(-159.85 -138.26)" fill="#651f45"/></g></g><g transform="translate(13.752 106.713)"><path d="M189.65,156.424H150a3.281,3.281,0,0,1-3.286-3.286v-6.221A3.281,3.281,0,0,1,150,143.63H189.65a3.281,3.281,0,0,1,3.286,3.286v6.221A3.281,3.281,0,0,1,189.65,156.424Z" transform="translate(-146.71 -143.63)" fill="#fff"/><g transform="translate(11.874 4.675)"><path d="M173.536,149.463H154.5a1.722,1.722,0,0,1,0-3.443h19.034a1.722,1.722,0,0,1,0,3.443Z" transform="translate(-152.78 -146.02)" fill="#28ceea"/></g></g></g></g><g transform="translate(114.432 159.427)"><path d="M85.834,160.712h0a.536.536,0,0,1-.313-.646l1.409-3.893a.536.536,0,0,1,.646-.313h0a.536.536,0,0,1,.313.646l-1.409,3.912A.492.492,0,0,1,85.834,160.712Z" transform="translate(-85.345 -58.433)" fill="#8e858a"/><g transform="translate(30.159)"><path d="M104.091,120.275l-2.25-.8a1.556,1.556,0,0,1-.919-1.956l3.776-10.466a1.556,1.556,0,0,1,1.956-.919l2.25.8a1.556,1.556,0,0,1,.919,1.956l-3.776,10.466A1.556,1.556,0,0,1,104.091,120.275Z" transform="translate(-100.837 -106.047)" fill="#a53f0c"/></g><g transform="translate(28.461 4.093)"><path d="M107.053,118.509l-6.182-2.23a1.365,1.365,0,0,1-.822-1.741l1.976-5.5a1.365,1.365,0,0,1,1.741-.822l6.182,2.23a1.365,1.365,0,0,1,.822,1.741l-1.976,5.5A1.365,1.365,0,0,1,107.053,118.509Z" transform="translate(-99.969 -108.139)" fill="#a53f0c"/></g><g transform="translate(0 9.084)"><g transform="translate(0 83.199)"><path d="M87.083,153.22l-1.663,7.805,2.269.841,3.717-7.082Z" transform="translate(-85.42 -153.22)" fill="#1c0a14"/></g><g transform="translate(0.02)"><path d="M119.273,112.411h0l-4.793-1.721L95.074,164.428,85.43,196.08l3.228,1.174h0l2.367.861,12.794-30.537,19.386-53.738Z" transform="translate(-85.43 -110.69)" fill="#ff673c"/></g><g transform="translate(3.208 2.132)"><path d="M118.81,111.78,99.423,165.518,87.06,196.192l2.406.88,12.794-30.537L121.646,112.8Z" transform="translate(-87.06 -111.78)" fill="#ff391a"/></g><path d="M86.878,152.02l-1.448,4.538,3.228,1.174h0l.059.02h0l2.308.841,1.78-4.441Z" transform="translate(-85.41 -71.168)" fill="#ffb39e"/><g transform="translate(9.655 49.229)"><rect width="9.292" height="4.773" transform="translate(1.621 0) rotate(19.847)" fill="#ffb39e"/></g></g><g transform="translate(15.564 60.458)"><rect width="3.013" height="4.773" transform="translate(1.621 0) rotate(19.847)" fill="#ff7e59"/></g><path d="M88.8,152.66,87.06,157.1l2.406.88,1.78-4.441Z" transform="translate(-83.852 -61.473)" fill="#ff7e59"/><g transform="translate(32.784 2.355)"><rect width="5.438" height="2.152" transform="translate(0.731 0) rotate(19.847)" fill="#1c0a14"/></g><g transform="translate(19.714 17.51)"><g transform="translate(0 24.399)"><path d="M97.478,129.6l-.215-.078a1.6,1.6,0,0,1-.939-2.054l-.724,2a1.586,1.586,0,0,0,.939,2.054l.215.078a1.61,1.61,0,0,0,2.034-1l.724-2A1.586,1.586,0,0,1,97.478,129.6Z" transform="translate(-95.498 -127.47)" fill="#1c0a14"/></g><path d="M107.663,115.9l-1.135-.411-.176-.059-1.135-.411a.407.407,0,0,0-.509.235l-.411,1.135-8.373,23.2a1.6,1.6,0,0,0,.959,2.034l.176.059a1.6,1.6,0,0,0,2.034-.959l8.373-23.2.411-1.135A.36.36,0,0,0,107.663,115.9Z" transform="translate(-95.177 -114.997)" fill="#ffb39e"/><g transform="translate(0.646 22.58)"><path d="M97.808,128.672l-.215-.078a1.6,1.6,0,0,1-.939-2.054l-.724,2a1.586,1.586,0,0,0,.939,2.054l.215.078a1.61,1.61,0,0,0,2.034-1l.724-2A1.594,1.594,0,0,1,97.808,128.672Z" transform="translate(-95.828 -126.54)" fill="#ffede8"/></g></g></g><g transform="translate(0 226.126)"><g transform="translate(0 2.285)"><path d="M132.514,141.31l-66.708,6.162s-9.1.528-15.728,5.086L27.914,169.636s-2.132,1.565-.137,2.876a3.318,3.318,0,0,0,4.108.469s2.934-1.858,14.985-13.068a27.731,27.731,0,0,1,19.523-9.136l66.141-3.834V141.31Z" transform="translate(-26.924 -141.31)" fill="#32393f"/></g><g transform="translate(3.005 2.285)"><path d="M28.48,141.31l66.708,6.162s9.1.528,15.728,5.086l22.164,17.078s2.132,1.565.137,2.876a3.318,3.318,0,0,1-4.108.469s-2.934-1.858-14.985-13.068A27.675,27.675,0,0,0,94.6,150.778L28.46,146.944V141.31Z" transform="translate(-28.46 -141.31)" fill="#3f4c5b"/></g><g transform="translate(3.024)"><path d="M97.212,140.94c-12.422,3.619-17.019,2.837-17.019,2.837s-4.578.783-17-2.837c0,0-9.977-2.524-34.723,1.448v7.14s2.856.606,3.15,2.739c-.1,5.654.782,13.3,4.538,17.8,6.26,7.512,20.638,6.71,28.366,2.661,0,0,8.353-4.382,11.5-17.2,0,0,.7-4.265,4.167-4.265s4.167,4.265,4.167,4.265c3.15,12.833,11.5,17.2,11.5,17.2,7.727,4.049,22.106,4.851,28.366-2.661,3.756-4.5,4.636-12.148,4.538-17.8.293-2.152,3.15-2.739,3.15-2.739v-7.14C107.189,138.4,97.212,140.94,97.212,140.94Zm-29.95,25.685s-3.4,5.262-12.931,6.514c0,0-11.483,1.937-15.865-5.732a26.327,26.327,0,0,1-.978-20.149s.861-4.186,16.824-4.382c0,0,16.139.293,17.411,7.3C71.742,150.193,73.288,157.881,67.262,166.626Zm54.677.8c-4.382,7.688-15.846,5.732-15.846,5.732-9.527-1.272-12.931-6.514-12.931-6.514-6.025-8.744-4.48-16.432-4.48-16.432,1.272-7,17.411-7.3,17.411-7.3,15.943.2,16.843,4.382,16.843,4.382A26.364,26.364,0,0,1,121.939,167.428Z" transform="translate(-28.47 -140.142)" fill="#303030"/></g><g transform="translate(71.649 33.155)" opacity="0.3"><path d="M63.55,157.09Z" transform="translate(-63.55 -157.09)" fill="#66b2e3"/></g><g transform="translate(63.04 2.755)" opacity="0.5"><path d="M92.6,166.081a26.327,26.327,0,0,0,.978-20.149s-.88-4.186-16.843-4.382c0,0-16.159.293-17.411,7.3,0,0-1.545,7.688,4.48,16.432,0,0,3.4,5.262,12.931,6.514C76.757,171.813,88.24,173.75,92.6,166.081Z" transform="translate(-59.149 -141.55)" fill="#fff"/></g><g transform="translate(10.511 2.774)" opacity="0.5"><path d="M50.672,171.8c9.527-1.272,12.931-6.514,12.931-6.514,6.025-8.744,4.48-16.432,4.48-16.432-1.252-7-17.411-7.3-17.411-7.3-15.963.2-16.824,4.382-16.824,4.382a26.348,26.348,0,0,0,.978,20.149C39.169,173.74,50.672,171.8,50.672,171.8Z" transform="translate(-32.297 -141.56)" fill="#fff"/></g></g></g></g><circle cx="8" cy="8" r="8" transform="translate(1329 227)" fill="#b3ecfb"/><circle cx="8" cy="8" r="8" transform="translate(955 481) rotate(180)" fill="#b3ecfb"/><circle cx="4" cy="4" r="4" transform="translate(1353 219)" fill="#b3ecfb"/><circle cx="4" cy="4" r="4" transform="translate(931 489) rotate(180)" fill="#b3ecfb"/></g></svg>